<svg height="512" viewBox="0 0 512 512" width="512" xmlns="http://www.w3.org/2000/svg"><g><g><path d="m343 456h-175l-24.734-160.077c-9.673-106.4 28.415-195.6 103.963-271.152l8.771-8.771 8.771 8.771c75.548 75.548 113.636 164.75 103.963 271.152z" fill="#d8d7da"/><circle cx="256" cy="200" fill="#787680" r="64"/><circle cx="256" cy="200" fill="#006df0" r="40"/><g fill="#d80027"><path d="m304 496h-96l16-40h64z"/><path d="m147.57 323.78c-76.47 31.23-99.09 89.94-75.57 172.22l92.95-59.75"/><path d="m364.21 324.05c75.95 31.29 98.37 89.91 74.92 171.95l-92.95-59.76"/><path d="m272 432h-32l8-88h16z"/></g></g><g><path d="m256 128a72 72 0 1 0 72 72 72.081 72.081 0 0 0 -72-72zm0 128a56 56 0 1 1 56-56 56.063 56.063 0 0 1 -56 56z"/><path d="m256 152a48 48 0 1 0 48 48 48.054 48.054 0 0 0 -48-48zm0 80a32 32 0 1 1 32-32 32.036 32.036 0 0 1 -32 32z"/><path d="m373.1 319.17 3.53-21.98a4.987 4.987 0 0 0 .07-.54c4.84-53.21-2.08-103.95-20.55-150.81-17.7-44.91-46.54-87.55-85.72-126.72l-8.77-8.78a8.015 8.015 0 0 0 -11.32 0l-8.77 8.77c-39.18 39.18-68.02 81.82-85.72 126.73-18.47 46.86-25.39 97.6-20.55 150.81a4.1 4.1 0 0 0 .06.49l3.35 21.72c-74.04 32.7-99.08 93-74.4 179.34a8 8 0 0 0 12.02 4.53l82.59-53.09 1.17 7.58a8.009 8.009 0 0 0 7.91 6.78h44.18l-11.61 29.03a8 8 0 0 0 7.43 10.97h96a8 8 0 0 0 7.43-10.97l-11.61-29.03h43.18a8 8 0 0 0 7.9-6.73l1.23-7.69 82.67 53.15a8 8 0 0 0 12.02-4.53c24.6-86.07-.21-146.27-73.72-179.03zm-296.18 164.16c-17.26-71.15 3.85-119.74 64.33-148.06l15 97.06zm142.9 4.67 9.6-24h53.16l9.6 24zm116.36-40h-161.32l-2.02-13.04c0-.03-.01-.07-.01-.11l-21.62-139.9c-4.56-50.61 2-98.8 19.52-143.24 16.9-42.86 44.54-83.66 82.16-121.28l3.11-3.12 3.11 3.12c37.62 37.62 65.26 78.42 82.16 121.28 17.51 44.44 24.08 92.62 19.52 143.22l-4.44 27.61a.17.17 0 0 1 -.01.07zm98.03 35.33-79.3-50.99 15.56-96.79c60.02 28.36 80.94 76.85 63.74 147.78z"/><path d="m271.967 343.275a8 8 0 0 0 -7.967-7.275h-16a8 8 0 0 0 -7.967 7.275l-8 88a8 8 0 0 0 7.967 8.725h32a8 8 0 0 0 7.967-8.725zm-23.207 80.725 6.546-72h1.388l6.546 72z"/><path d="m264 320v-32a8 8 0 0 0 -16 0v32a8 8 0 0 0 16 0z"/><path d="m256 120a8 8 0 0 0 8-8v-48a8 8 0 0 0 -16 0v48a8 8 0 0 0 8 8z"/></g></g></svg>